# xmcd
#
# Track frame offsets:
#	150
#	21540
#	36620
#	52163
#	69318
#	81325
#	97083
#	108208
#	118520
#	133255
#	149208
#	163490
#	175370
#	192085
#	207408
#
# Disc length: 2921 seconds
#
# Revision: 2
# Processed by: cddbd v1.5.2PL0 Copyright (c) Steve Scherf et al.
# Submitted via: audiograbber 1.83.01
#
DISCID=f50b670f
DTITLE=MS® - Te Acuerdas? Vol 3
DYEAR=1985
DGENRE=Ballad
TTITLE0=Miguel Bose - Amiga
TTITLE1=Sandro - Porque Yo Te Amo
TTITLE2=Cesar Aurelio - Por Amarte
TTITLE3=Yoshio - Reina De Corazones
TTITLE4=Leo Dan - Pareces Una Nena
TTITLE5=Vikki Carr - Total
TTITLE6=Juan Salvador - Solo
TTITLE7=Soñadores - Vida
TTITLE8=Albert Hammond - Al Otro Lado Del Sol
TTITLE9=Gualberto Castro - La Felicidad
TTITLE10=Sonia Rivas - No Soy Como Tu
TTITLE11=Juanello - Que Esperabas
TTITLE12=Leo Dan - Siempre Estoy Pensando En Ella
TTITLE13=Manoella Torres - Como Las Violetas
TTITLE14=Picolinos - Yo Tu Y Las Rosas
EXTD=MS®
EXTT0=
EXTT1=
EXTT2=
EXTT3=
EXTT4=
EXTT5=
EXTT6=
EXTT7=
EXTT8=
EXTT9=
EXTT10=
EXTT11=
EXTT12=
EXTT13=
EXTT14=
PLAYORDER=
